<svg width="136" height="82" viewBox="0 0 136 82" fill="none" xmlns="http://www.w3.org/2000/svg">
<path d="M10.0723 27.7773C10.0723 28.7031 9.97266 29.5176 9.77344 30.2207C9.58594 30.9121 9.33398 31.5098 9.01758 32.0137C8.71289 32.5059 8.36719 32.916 7.98047 33.2441C7.59375 33.5605 7.19531 33.8125 6.78516 34C6.38672 34.1875 6 34.3164 5.625 34.3867C5.26172 34.4688 4.94531 34.5098 4.67578 34.5098C4.53516 34.5098 4.3418 34.498 4.0957 34.4746C3.84961 34.4629 3.56836 34.4277 3.25195 34.3691C2.93555 34.3105 2.58398 34.2227 2.19727 34.1055C1.82227 34 1.42383 33.8477 1.00195 33.6484L1.19531 29.2188C1.88672 29.8047 2.50195 30.1973 3.04102 30.3965C3.5918 30.5957 4.05469 30.6953 4.42969 30.6953C5.15625 30.6953 5.70117 30.4316 6.06445 29.9043C6.43945 29.377 6.62695 28.6914 6.62695 27.8477C6.62695 27.2852 6.48633 26.6582 6.20508 25.9668C5.93555 25.2637 5.44922 24.5078 4.74609 23.6992C4.26562 23.1367 3.76758 22.5508 3.25195 21.9414C2.73633 21.332 2.26758 20.6816 1.8457 19.9902C1.42383 19.2988 1.07812 18.5547 0.808594 17.7578C0.539062 16.9609 0.404297 16.0996 0.404297 15.1738C0.404297 14.002 0.5625 12.9883 0.878906 12.1328C1.20703 11.2773 1.64062 10.5684 2.17969 10.0059C2.71875 9.44336 3.33398 9.02734 4.02539 8.75781C4.72852 8.47656 5.46094 8.33594 6.22266 8.33594C6.89062 8.33594 7.57031 8.42969 8.26172 8.61719C8.96484 8.79297 9.66797 9.06836 10.3711 9.44336L10.0371 13.873C9.73242 13.4863 9.41016 13.1816 9.07031 12.959C8.74219 12.7246 8.41992 12.5488 8.10352 12.4316C7.79883 12.3145 7.51172 12.2383 7.24219 12.2031C6.98438 12.168 6.76758 12.1504 6.5918 12.1504C6.25195 12.1504 5.93555 12.2383 5.64258 12.4141C5.36133 12.5781 5.11523 12.8066 4.9043 13.0996C4.70508 13.3809 4.54688 13.7207 4.42969 14.1191C4.3125 14.5059 4.25391 14.916 4.25391 15.3496C4.25391 16.0176 4.39453 16.6211 4.67578 17.1602C4.96875 17.6992 5.33203 18.2324 5.76562 18.7598C6.19922 19.2871 6.66211 19.832 7.1543 20.3945C7.6582 20.9453 8.12695 21.5723 8.56055 22.2754C8.99414 22.9668 9.35156 23.7637 9.63281 24.666C9.92578 25.5566 10.0723 26.5938 10.0723 27.7773ZM17.2793 10.6387C17.2793 11.002 17.2207 11.3418 17.1035 11.6582C16.9863 11.9629 16.8105 12.2324 16.5762 12.4668C16.3418 12.6895 16.043 12.8652 15.6797 12.9941C15.3281 13.123 14.9121 13.1875 14.4316 13.1875C13.9043 13.1875 13.459 13.123 13.0957 12.9941C12.7441 12.8652 12.4512 12.6895 12.2168 12.4668C11.9941 12.2324 11.8301 11.9629 11.7246 11.6582C11.6309 11.3418 11.584 11.002 11.584 10.6387C11.584 10.2871 11.6367 9.95898 11.7422 9.6543C11.8477 9.33789 12.0117 9.0625 12.2344 8.82812C12.4688 8.59375 12.7676 8.41211 13.1309 8.2832C13.4941 8.14258 13.9277 8.07227 14.4316 8.07227C14.9355 8.07227 15.3633 8.14258 15.7148 8.2832C16.0781 8.41211 16.3711 8.59375 16.5938 8.82812C16.8281 9.0625 16.998 9.33789 17.1035 9.6543C17.2207 9.95898 17.2793 10.2871 17.2793 10.6387ZM16.2246 15.7539C16.1543 16.3984 16.0957 17.0898 16.0488 17.8281C16.002 18.5664 15.9609 19.334 15.9258 20.1309C15.8906 20.916 15.8672 21.7188 15.8555 22.5391C15.8438 23.3477 15.8379 24.1445 15.8379 24.9297C15.8379 25.8438 15.8438 26.7285 15.8555 27.584C15.8789 28.4277 15.9023 29.207 15.9258 29.9219C15.9609 30.6367 15.9961 31.2695 16.0312 31.8203C16.0781 32.3711 16.1309 32.7988 16.1895 33.1035C15.7207 33.1035 15.2344 33.1152 14.7305 33.1387C14.2969 33.1621 13.8105 33.1914 13.2715 33.2266C12.7324 33.2617 12.1934 33.3145 11.6543 33.3848C11.8535 31.2754 11.9883 29.3477 12.0586 27.6016C12.1289 25.8438 12.1641 24.2676 12.1641 22.873C12.1641 21.6777 12.1406 20.6348 12.0938 19.7441C12.0586 18.8418 12.0176 18.0801 11.9707 17.459C11.9238 16.7324 11.8652 16.1113 11.7949 15.5957C12.4512 15.6777 13.0488 15.7305 13.5879 15.7539C14.1387 15.7773 14.6133 15.7891 15.0117 15.7891C15.1992 15.7891 15.3691 15.7891 15.5215 15.7891C15.6738 15.7891 15.8027 15.7832 15.9082 15.7715C16.0371 15.7715 16.1426 15.7656 16.2246 15.7539ZM26.9824 15.4199L22.1309 30.5371L26.7012 30.4316V34.1406L17.3672 34.2812L22.377 18.7773L17.7715 18.9531L17.666 15.4199H26.9824ZM37.1426 15.4199L32.291 30.5371L36.8613 30.4316V34.1406L27.5273 34.2812L32.5371 18.7773L27.9316 18.9531L27.8262 15.4199H37.1426ZM42.5566 33.5254C42.252 33.5371 41.9062 33.5605 41.5195 33.5957C41.1914 33.6191 40.8047 33.6484 40.3594 33.6836C39.9258 33.7188 39.4453 33.7656 38.918 33.8242C38.8125 29.8516 38.7012 26.3418 38.584 23.2949C38.4668 20.2363 38.3613 17.6523 38.2676 15.543C38.1504 13.082 38.0332 10.9434 37.916 9.12695L42.4863 8.91602C42.4863 11.5645 42.4863 13.9492 42.4863 16.0703C42.4863 18.1797 42.4863 20.0605 42.4863 21.7129C42.498 23.3535 42.5039 24.7891 42.5039 26.0195C42.5156 27.2383 42.5215 28.2871 42.5215 29.166C42.5332 31.2168 42.5449 32.6699 42.5566 33.5254ZM54.7559 33.5254C53.666 33.9004 52.6699 34.1465 51.7676 34.2637C50.877 34.3809 50.1445 34.4395 49.5703 34.4395C48.8555 34.4395 48.2285 34.2988 47.6895 34.0176C47.1504 33.7363 46.6816 33.3613 46.2832 32.8926C45.8965 32.4238 45.5742 31.8848 45.3164 31.2754C45.0586 30.6543 44.8535 30.0039 44.7012 29.3242C44.5488 28.6445 44.4375 27.959 44.3672 27.2676C44.3086 26.5645 44.2793 25.9023 44.2793 25.2812C44.2793 23.7344 44.4023 22.3105 44.6484 21.0098C44.8945 19.6973 45.252 18.5664 45.7207 17.6172C46.1895 16.668 46.7695 15.9297 47.4609 15.4023C48.1523 14.8633 48.9375 14.5938 49.8164 14.5938C50.543 14.5938 51.2051 14.7754 51.8027 15.1387C52.4004 15.502 52.9102 16.0586 53.332 16.8086C53.7539 17.5586 54.0762 18.5137 54.2988 19.6738C54.5332 20.8223 54.6504 22.1875 54.6504 23.7695C54.6504 24.2148 54.6387 24.666 54.6152 25.123C54.6035 25.5801 54.5742 26.0547 54.5273 26.5469L48.3047 27.373C48.3516 27.8066 48.4219 28.2168 48.5156 28.6035C48.6211 28.9902 48.7559 29.3359 48.9199 29.6406C49.0957 29.9336 49.3008 30.168 49.5352 30.3438C49.7695 30.5195 50.0566 30.6074 50.3965 30.6074C51.0293 30.6074 51.6621 30.5723 52.2949 30.502C52.9277 30.4199 53.5898 30.3262 54.2812 30.2207L54.7559 33.5254ZM48.1992 24.3848L51.1172 23.8398V23.1719C51.1172 22.1758 51.041 21.4082 50.8887 20.8691C50.7363 20.3184 50.5723 19.9141 50.3965 19.6562C50.1855 19.3516 49.9453 19.1758 49.6758 19.1289C49.3359 19.1641 49.0664 19.3223 48.8672 19.6035C48.668 19.8848 48.5156 20.248 48.4102 20.6934C48.3164 21.127 48.2578 21.6191 48.2344 22.1699C48.2109 22.7207 48.1992 23.2773 48.1992 23.8398V24.3848ZM73.2305 34.5449C73.0898 34.3574 72.9492 34.1875 72.8086 34.0352C72.668 33.8828 72.5332 33.7129 72.4043 33.5254C71.9004 33.9004 71.4141 34.1875 70.9453 34.3867C70.4766 34.5859 70.0547 34.7324 69.6797 34.8262C69.2461 34.9434 68.8359 35.002 68.4492 35.002C67.4062 35.002 66.457 34.8555 65.6016 34.5625C64.7461 34.2695 64.0137 33.8477 63.4043 33.2969C62.7949 32.7461 62.3203 32.084 61.9805 31.3105C61.6523 30.5254 61.4883 29.6465 61.4883 28.6738C61.4766 27.8418 61.5938 27.0273 61.8398 26.2305C62.0859 25.4336 62.4082 24.6602 62.8066 23.9102C63.2051 23.1602 63.6621 22.4336 64.1777 21.7305C64.6934 21.0156 65.2148 20.3301 65.7422 19.6738C65.5547 18.8652 65.4141 18.1328 65.3203 17.4766C65.2266 16.8086 65.1562 16.2344 65.1094 15.7539C65.0625 15.1914 65.0332 14.6875 65.0215 14.2422C65.0332 12.9648 65.168 11.916 65.4258 11.0957C65.6953 10.2637 66.0352 9.61328 66.4453 9.14453C66.8672 8.66406 67.3418 8.33008 67.8691 8.14258C68.3965 7.95508 68.9238 7.86133 69.4512 7.86133C69.9199 7.86133 70.3711 7.96094 70.8047 8.16016C71.2383 8.35937 71.6191 8.65234 71.9473 9.03906C72.2754 9.41406 72.5332 9.87695 72.7207 10.4277C72.9199 10.9785 73.0195 11.5996 73.0195 12.291C73.0195 12.9473 72.9199 13.5918 72.7207 14.2246C72.5215 14.8574 72.2578 15.4785 71.9297 16.0879C71.6016 16.6855 71.2207 17.2832 70.7871 17.8809C70.3652 18.4668 69.9316 19.0527 69.4863 19.6387C69.8145 20.7285 70.2012 21.8652 70.6465 23.0488C71.1035 24.2324 71.6426 25.4102 72.2637 26.582C72.3223 26.2891 72.3574 26.002 72.3691 25.7207C72.3926 25.4277 72.4043 25.1289 72.4043 24.8242C72.4043 23.9922 72.3047 23.1602 72.1055 22.3281L76.1133 22.293C76.1367 22.5625 76.1484 22.8262 76.1484 23.084C76.1484 23.3301 76.1484 23.5703 76.1484 23.8047C76.1484 25.3281 76.0195 26.6465 75.7617 27.7598C75.5039 28.8613 75.1758 29.8105 74.7773 30.6074C75.2109 31.2051 75.6738 31.7793 76.166 32.3301C76.6699 32.8809 77.2031 33.3906 77.7656 33.8594L73.2305 34.5449ZM68.1504 32.084C68.584 32.084 68.9941 31.9844 69.3809 31.7852C69.7676 31.5742 70.125 31.2812 70.4531 30.9062C69.6094 29.582 68.8828 28.2871 68.2734 27.0215C67.6758 25.7441 67.1777 24.5195 66.7793 23.3477C66.334 24.0508 65.9707 24.7715 65.6895 25.5098C65.4082 26.2363 65.2676 26.9805 65.2676 27.7422C65.2676 28.457 65.3379 29.0898 65.4785 29.6406C65.6309 30.1797 65.8359 30.6309 66.0938 30.9941C66.3633 31.3574 66.668 31.6328 67.0078 31.8203C67.3594 31.9961 67.7402 32.084 68.1504 32.084ZM68.1504 13.0469C68.1504 13.3047 68.1797 13.6855 68.2383 14.1895C68.3086 14.6934 68.4258 15.3086 68.5898 16.0352C68.9531 15.5078 69.2402 15.0039 69.4512 14.5234C69.6621 14.043 69.7676 13.5859 69.7676 13.1523C69.7676 12.5781 69.6914 12.1621 69.5391 11.9043C69.3867 11.6348 69.2109 11.5 69.0117 11.5C68.8125 11.5 68.6191 11.6348 68.4316 11.9043C68.2441 12.1621 68.1504 12.543 68.1504 13.0469ZM93.7793 27.7773C93.7793 28.7031 93.6797 29.5176 93.4805 30.2207C93.293 30.9121 93.041 31.5098 92.7246 32.0137C92.4199 32.5059 92.0742 32.916 91.6875 33.2441C91.3008 33.5605 90.9023 33.8125 90.4922 34C90.0938 34.1875 89.707 34.3164 89.332 34.3867C88.9688 34.4688 88.6523 34.5098 88.3828 34.5098C88.2422 34.5098 88.0488 34.498 87.8027 34.4746C87.5566 34.4629 87.2754 34.4277 86.959 34.3691C86.6426 34.3105 86.291 34.2227 85.9043 34.1055C85.5293 34 85.1309 33.8477 84.709 33.6484L84.9023 29.2188C85.5938 29.8047 86.209 30.1973 86.748 30.3965C87.2988 30.5957 87.7617 30.6953 88.1367 30.6953C88.8633 30.6953 89.4082 30.4316 89.7715 29.9043C90.1465 29.377 90.334 28.6914 90.334 27.8477C90.334 27.2852 90.1934 26.6582 89.9121 25.9668C89.6426 25.2637 89.1562 24.5078 88.4531 23.6992C87.9727 23.1367 87.4746 22.5508 86.959 21.9414C86.4434 21.332 85.9746 20.6816 85.5527 19.9902C85.1309 19.2988 84.7852 18.5547 84.5156 17.7578C84.2461 16.9609 84.1113 16.0996 84.1113 15.1738C84.1113 14.002 84.2695 12.9883 84.5859 12.1328C84.9141 11.2773 85.3477 10.5684 85.8867 10.0059C86.4258 9.44336 87.041 9.02734 87.7324 8.75781C88.4355 8.47656 89.168 8.33594 89.9297 8.33594C90.5977 8.33594 91.2773 8.42969 91.9688 8.61719C92.6719 8.79297 93.375 9.06836 94.0781 9.44336L93.7441 13.873C93.4395 13.4863 93.1172 13.1816 92.7773 12.959C92.4492 12.7246 92.127 12.5488 91.8105 12.4316C91.5059 12.3145 91.2188 12.2383 90.9492 12.2031C90.6914 12.168 90.4746 12.1504 90.2988 12.1504C89.959 12.1504 89.6426 12.2383 89.3496 12.4141C89.0684 12.5781 88.8223 12.8066 88.6113 13.0996C88.4121 13.3809 88.2539 13.7207 88.1367 14.1191C88.0195 14.5059 87.9609 14.916 87.9609 15.3496C87.9609 16.0176 88.1016 16.6211 88.3828 17.1602C88.6758 17.6992 89.0391 18.2324 89.4727 18.7598C89.9062 19.2871 90.3691 19.832 90.8613 20.3945C91.3652 20.9453 91.834 21.5723 92.2676 22.2754C92.7012 22.9668 93.0586 23.7637 93.3398 24.666C93.6328 25.5566 93.7793 26.5938 93.7793 27.7773ZM101.672 14.5586C102.434 14.5586 103.09 14.752 103.641 15.1387C104.203 15.5254 104.672 16.0352 105.047 16.668C105.434 17.2891 105.738 18.0039 105.961 18.8125C106.195 19.6211 106.371 20.4531 106.488 21.3086C106.617 22.1523 106.699 22.9785 106.734 23.7871C106.781 24.5957 106.805 25.3223 106.805 25.9668C106.805 27.4316 106.688 28.7031 106.453 29.7812C106.219 30.8477 105.896 31.7324 105.486 32.4355C105.088 33.1387 104.625 33.6602 104.098 34C103.57 34.3398 103.014 34.5098 102.428 34.5098C102.076 34.4746 101.719 34.3926 101.355 34.2637C101.051 34.1465 100.717 33.9707 100.354 33.7363C100.002 33.4902 99.668 33.1445 99.3516 32.6992L99.6855 39.9062H95.7305V15.8945L99.1055 15.6484V16.6152C99.2461 16.3457 99.4043 16.0879 99.5801 15.8418C99.7676 15.584 99.9668 15.3613 100.178 15.1738C100.389 14.9863 100.617 14.8398 100.863 14.7344C101.109 14.6172 101.379 14.5586 101.672 14.5586ZM103.025 25.9668C103.025 25.5684 103.014 25.0996 102.99 24.5605C102.979 24.0098 102.949 23.4414 102.902 22.8555C102.855 22.2695 102.785 21.6895 102.691 21.1152C102.598 20.541 102.469 20.0312 102.305 19.5859C102.152 19.1289 101.959 18.7598 101.725 18.4785C101.502 18.1973 101.227 18.0566 100.898 18.0566C100.582 18.0566 100.307 18.2031 100.072 18.4961C99.8379 18.7773 99.6445 19.1641 99.4922 19.6562C99.3516 20.1484 99.2461 20.7227 99.1758 21.3789C99.1055 22.0234 99.0703 22.7031 99.0703 23.418C99.0703 23.7461 99.0703 24.1504 99.0703 24.6309C99.082 25.0996 99.1055 25.5977 99.1406 26.125C99.1758 26.6523 99.2344 27.1797 99.3164 27.707C99.4102 28.2344 99.5332 28.709 99.6855 29.1309C99.8496 29.541 100.055 29.8809 100.301 30.1504C100.559 30.4082 100.869 30.5371 101.232 30.5371C101.631 30.5371 101.947 30.4082 102.182 30.1504C102.428 29.8926 102.609 29.5527 102.727 29.1309C102.855 28.6973 102.938 28.2051 102.973 27.6543C103.008 27.1035 103.025 26.541 103.025 25.9668ZM113.924 10.6387C113.924 11.002 113.865 11.3418 113.748 11.6582C113.631 11.9629 113.455 12.2324 113.221 12.4668C112.986 12.6895 112.688 12.8652 112.324 12.9941C111.973 13.123 111.557 13.1875 111.076 13.1875C110.549 13.1875 110.104 13.123 109.74 12.9941C109.389 12.8652 109.096 12.6895 108.861 12.4668C108.639 12.2324 108.475 11.9629 108.369 11.6582C108.275 11.3418 108.229 11.002 108.229 10.6387C108.229 10.2871 108.281 9.95898 108.387 9.6543C108.492 9.33789 108.656 9.0625 108.879 8.82812C109.113 8.59375 109.412 8.41211 109.775 8.2832C110.139 8.14258 110.572 8.07227 111.076 8.07227C111.58 8.07227 112.008 8.14258 112.359 8.2832C112.723 8.41211 113.016 8.59375 113.238 8.82812C113.473 9.0625 113.643 9.33789 113.748 9.6543C113.865 9.95898 113.924 10.2871 113.924 10.6387ZM112.869 15.7539C112.799 16.3984 112.74 17.0898 112.693 17.8281C112.646 18.5664 112.605 19.334 112.57 20.1309C112.535 20.916 112.512 21.7188 112.5 22.5391C112.488 23.3477 112.482 24.1445 112.482 24.9297C112.482 25.8438 112.488 26.7285 112.5 27.584C112.523 28.4277 112.547 29.207 112.57 29.9219C112.605 30.6367 112.641 31.2695 112.676 31.8203C112.723 32.3711 112.775 32.7988 112.834 33.1035C112.365 33.1035 111.879 33.1152 111.375 33.1387C110.941 33.1621 110.455 33.1914 109.916 33.2266C109.377 33.2617 108.838 33.3145 108.299 33.3848C108.498 31.2754 108.633 29.3477 108.703 27.6016C108.773 25.8438 108.809 24.2676 108.809 22.873C108.809 21.6777 108.785 20.6348 108.738 19.7441C108.703 18.8418 108.662 18.0801 108.615 17.459C108.568 16.7324 108.51 16.1113 108.439 15.5957C109.096 15.6777 109.693 15.7305 110.232 15.7539C110.783 15.7773 111.258 15.7891 111.656 15.7891C111.844 15.7891 112.014 15.7891 112.166 15.7891C112.318 15.7891 112.447 15.7832 112.553 15.7715C112.682 15.7715 112.787 15.7656 112.869 15.7539ZM122.801 19.5684C122.637 19.3574 122.438 19.1934 122.203 19.0762C121.969 18.959 121.734 18.8711 121.5 18.8125C121.266 18.7539 121.049 18.7188 120.85 18.707C120.65 18.6836 120.51 18.6719 120.428 18.6719C120.076 18.6719 119.76 18.8242 119.479 19.1289C119.209 19.4336 118.975 19.8672 118.775 20.4297C118.588 20.9922 118.441 21.6777 118.336 22.4863C118.242 23.2832 118.195 24.1797 118.195 25.1758C118.195 26.1367 118.26 27.0156 118.389 27.8125C118.529 28.5977 118.77 29.2773 119.109 29.8516C119.449 30.4141 119.906 30.8652 120.48 31.2051C121.055 31.5449 121.781 31.7441 122.66 31.8027L122.555 34.8262C122.355 34.8496 122.156 34.8672 121.957 34.8789C121.77 34.8906 121.582 34.8965 121.395 34.8965C120.387 34.8965 119.514 34.7676 118.775 34.5098C118.049 34.2637 117.428 33.9121 116.912 33.4551C116.396 32.998 115.975 32.459 115.646 31.8379C115.33 31.2051 115.078 30.5195 114.891 29.7812C114.703 29.0312 114.574 28.2402 114.504 27.4082C114.445 26.5645 114.416 25.7031 114.416 24.8242C114.416 24.2148 114.428 23.541 114.451 22.8027C114.486 22.0527 114.557 21.3027 114.662 20.5527C114.779 19.791 114.949 19.0527 115.172 18.3379C115.406 17.623 115.723 16.9902 116.121 16.4395C116.52 15.877 117.018 15.4316 117.615 15.1035C118.225 14.7637 118.957 14.5938 119.812 14.5938C120.188 14.5938 120.551 14.623 120.902 14.6816C121.254 14.7402 121.576 14.8164 121.869 14.9102C122.162 14.9922 122.414 15.0859 122.625 15.1914C122.836 15.2852 122.988 15.373 123.082 15.4551L122.801 19.5684ZM134.314 33.5254C133.225 33.9004 132.229 34.1465 131.326 34.2637C130.436 34.3809 129.703 34.4395 129.129 34.4395C128.414 34.4395 127.787 34.2988 127.248 34.0176C126.709 33.7363 126.24 33.3613 125.842 32.8926C125.455 32.4238 125.133 31.8848 124.875 31.2754C124.617 30.6543 124.412 30.0039 124.26 29.3242C124.107 28.6445 123.996 27.959 123.926 27.2676C123.867 26.5645 123.838 25.9023 123.838 25.2812C123.838 23.7344 123.961 22.3105 124.207 21.0098C124.453 19.6973 124.811 18.5664 125.279 17.6172C125.748 16.668 126.328 15.9297 127.02 15.4023C127.711 14.8633 128.496 14.5938 129.375 14.5938C130.102 14.5938 130.764 14.7754 131.361 15.1387C131.959 15.502 132.469 16.0586 132.891 16.8086C133.312 17.5586 133.635 18.5137 133.857 19.6738C134.092 20.8223 134.209 22.1875 134.209 23.7695C134.209 24.2148 134.197 24.666 134.174 25.123C134.162 25.5801 134.133 26.0547 134.086 26.5469L127.863 27.373C127.91 27.8066 127.98 28.2168 128.074 28.6035C128.18 28.9902 128.314 29.3359 128.479 29.6406C128.654 29.9336 128.859 30.168 129.094 30.3438C129.328 30.5195 129.615 30.6074 129.955 30.6074C130.588 30.6074 131.221 30.5723 131.854 30.502C132.486 30.4199 133.148 30.3262 133.84 30.2207L134.314 33.5254ZM127.758 24.3848L130.676 23.8398V23.1719C130.676 22.1758 130.6 21.4082 130.447 20.8691C130.295 20.3184 130.131 19.9141 129.955 19.6562C129.744 19.3516 129.504 19.1758 129.234 19.1289C128.895 19.1641 128.625 19.3223 128.426 19.6035C128.227 19.8848 128.074 20.248 127.969 20.6934C127.875 21.127 127.816 21.6191 127.793 22.1699C127.77 22.7207 127.758 23.2773 127.758 23.8398V24.3848Z" fill="#D32F2F"/>
<path d="M58.9297 52.6055C58.9297 53.7253 58.7799 54.8255 58.4805 55.9062C58.194 56.974 57.7448 57.9635 57.1328 58.875C56.5339 59.7865 55.7721 60.5938 54.8477 61.2969C53.9232 61.987 52.8294 62.5143 51.5664 62.8789C51.5924 64.4544 51.625 66.0169 51.6641 67.5664C51.7161 69.1029 51.7747 70.6328 51.8398 72.1562H47.0742C47.2826 69.2005 47.4323 66.2448 47.5234 63.2891C47.6276 60.3333 47.6797 57.3581 47.6797 54.3633C47.6797 52.6315 47.6667 50.9062 47.6406 49.1875C47.6146 47.4557 47.5625 45.7109 47.4844 43.9531C48.1745 43.7448 48.8711 43.6081 49.5742 43.543C50.2904 43.4779 50.8958 43.4453 51.3906 43.4453C51.7422 43.4453 52.1719 43.4844 52.6797 43.5625C53.2005 43.6406 53.7344 43.7969 54.2812 44.0312C54.8411 44.2526 55.3945 44.5716 55.9414 44.9883C56.5013 45.3919 57.0026 45.9388 57.4453 46.6289C57.888 47.306 58.2461 48.1328 58.5195 49.1094C58.793 50.0859 58.9297 51.2513 58.9297 52.6055ZM51.5664 59.5586C51.9961 59.4023 52.3672 59.194 52.6797 58.9336C53.0052 58.6732 53.2852 58.3867 53.5195 58.0742C53.7669 57.7487 53.9688 57.4036 54.125 57.0391C54.2943 56.6745 54.431 56.3164 54.5352 55.9648C54.7826 55.1445 54.9258 54.2526 54.9648 53.2891C54.9648 53.276 54.9583 53.1263 54.9453 52.8398C54.9453 52.5534 54.9128 52.1953 54.8477 51.7656C54.7956 51.3229 54.7044 50.8411 54.5742 50.3203C54.444 49.7865 54.2617 49.2786 54.0273 48.7969C53.806 48.3151 53.513 47.8854 53.1484 47.5078C52.7969 47.1172 52.3607 46.8438 51.8398 46.6875C51.7357 48.7057 51.6641 50.7305 51.625 52.7617C51.5859 54.7799 51.5664 56.8177 51.5664 58.875V59.5586ZM66.4492 46.043C66.4492 46.4466 66.3841 46.8242 66.2539 47.1758C66.1237 47.5143 65.9284 47.8138 65.668 48.0742C65.4076 48.3216 65.0755 48.5169 64.6719 48.6602C64.2812 48.8034 63.819 48.875 63.2852 48.875C62.6992 48.875 62.2044 48.8034 61.8008 48.6602C61.4102 48.5169 61.0846 48.3216 60.8242 48.0742C60.5768 47.8138 60.3945 47.5143 60.2773 47.1758C60.1732 46.8242 60.1211 46.4466 60.1211 46.043C60.1211 45.6523 60.1797 45.2878 60.2969 44.9492C60.4141 44.5977 60.5964 44.2917 60.8438 44.0312C61.1042 43.7708 61.4362 43.569 61.8398 43.4258C62.2435 43.2695 62.7253 43.1914 63.2852 43.1914C63.8451 43.1914 64.3203 43.2695 64.7109 43.4258C65.1146 43.569 65.4401 43.7708 65.6875 44.0312C65.9479 44.2917 66.1367 44.5977 66.2539 44.9492C66.3841 45.2878 66.4492 45.6523 66.4492 46.043ZM65.2773 51.7266C65.1992 52.4427 65.1341 53.2109 65.082 54.0312C65.0299 54.8516 64.9844 55.7044 64.9453 56.5898C64.9062 57.4622 64.8802 58.3542 64.8672 59.2656C64.8542 60.1641 64.8477 61.0495 64.8477 61.9219C64.8477 62.9375 64.8542 63.9206 64.8672 64.8711C64.8932 65.8086 64.9193 66.6745 64.9453 67.4688C64.9844 68.263 65.0234 68.9661 65.0625 69.5781C65.1146 70.1901 65.1732 70.6654 65.2383 71.0039C64.7174 71.0039 64.1771 71.0169 63.6172 71.043C63.1354 71.069 62.5951 71.1016 61.9961 71.1406C61.3971 71.1797 60.7982 71.2383 60.1992 71.3164C60.4206 68.9727 60.5703 66.8307 60.6484 64.8906C60.7266 62.9375 60.7656 61.1862 60.7656 59.6367C60.7656 58.3086 60.7396 57.1497 60.6875 56.1602C60.6484 55.1576 60.6029 54.3112 60.5508 53.6211C60.4987 52.8138 60.4336 52.1237 60.3555 51.5508C61.0846 51.6419 61.7487 51.7005 62.3477 51.7266C62.9596 51.7526 63.487 51.7656 63.9297 51.7656C64.138 51.7656 64.3268 51.7656 64.4961 51.7656C64.6654 51.7656 64.8086 51.7591 64.9258 51.7461C65.069 51.7461 65.1862 51.7396 65.2773 51.7266ZM77.2305 51.3555L71.8398 68.1523L76.918 68.0352V72.1562L66.5469 72.3125L72.1133 55.0859L66.9961 55.2812L66.8789 51.3555H77.2305ZM88.5195 51.3555L83.1289 68.1523L88.207 68.0352V72.1562L77.8359 72.3125L83.4023 55.0859L78.2852 55.2812L78.168 51.3555H88.5195ZM101.02 71.4727C99.8086 71.8893 98.7018 72.1628 97.6992 72.293C96.7096 72.4232 95.8958 72.4883 95.2578 72.4883C94.4635 72.4883 93.7669 72.332 93.168 72.0195C92.569 71.707 92.0482 71.2904 91.6055 70.7695C91.1758 70.2487 90.8177 69.6497 90.5312 68.9727C90.2448 68.2826 90.0169 67.5599 89.8477 66.8047C89.6784 66.0495 89.5547 65.2878 89.4766 64.5195C89.4115 63.7383 89.3789 63.0026 89.3789 62.3125C89.3789 60.5938 89.5156 59.0117 89.7891 57.5664C90.0625 56.1081 90.4596 54.8516 90.9805 53.7969C91.5013 52.7422 92.1458 51.9219 92.9141 51.3359C93.6823 50.737 94.5547 50.4375 95.5312 50.4375C96.3385 50.4375 97.0742 50.6393 97.7383 51.043C98.4023 51.4466 98.9688 52.0651 99.4375 52.8984C99.9062 53.7318 100.264 54.793 100.512 56.082C100.772 57.3581 100.902 58.875 100.902 60.6328C100.902 61.1276 100.889 61.6289 100.863 62.1367C100.85 62.6445 100.818 63.1719 100.766 63.7188L93.8516 64.6367C93.9036 65.1185 93.9818 65.5742 94.0859 66.0039C94.2031 66.4336 94.3529 66.8177 94.5352 67.1562C94.7305 67.4818 94.9583 67.7422 95.2188 67.9375C95.4792 68.1328 95.7982 68.2305 96.1758 68.2305C96.8789 68.2305 97.582 68.1914 98.2852 68.1133C98.9883 68.0221 99.724 67.918 100.492 67.8008L101.02 71.4727ZM93.7344 61.3164L96.9766 60.7109V59.9688C96.9766 58.862 96.8919 58.0091 96.7227 57.4102C96.5534 56.7982 96.3711 56.349 96.1758 56.0625C95.9414 55.724 95.6745 55.5286 95.375 55.4766C94.9974 55.5156 94.6979 55.6914 94.4766 56.0039C94.2552 56.3164 94.0859 56.7201 93.9688 57.2148C93.8646 57.6966 93.7995 58.2435 93.7734 58.8555C93.7474 59.4674 93.7344 60.0859 93.7344 60.7109V61.3164ZM114.535 59.9688C114.118 60.0339 113.682 60.112 113.227 60.2031C112.836 60.2812 112.393 60.3854 111.898 60.5156C111.404 60.6458 110.909 60.7956 110.414 60.9648C110.544 60.3138 110.629 59.7474 110.668 59.2656C110.72 58.7708 110.746 58.3216 110.746 57.918C110.746 57.2148 110.681 56.668 110.551 56.2773C110.434 55.8737 110.297 55.5742 110.141 55.3789C109.984 55.1836 109.828 55.0664 109.672 55.0273C109.529 54.9883 109.431 54.9688 109.379 54.9688C108.962 54.9688 108.624 55.1445 108.363 55.4961C108.103 55.8346 107.901 56.2904 107.758 56.8633C107.615 57.4232 107.517 58.0677 107.465 58.7969C107.413 59.526 107.387 60.2747 107.387 61.043C107.387 61.5898 107.393 62.1367 107.406 62.6836C107.419 63.2305 107.439 63.7773 107.465 64.3242L107.738 72L103.227 72.3125C103.227 69.1745 103.194 66.349 103.129 63.8359C103.077 61.3099 103.018 59.1549 102.953 57.3711C102.875 55.2878 102.79 53.4323 102.699 51.8047L106.547 51.5508L106.742 53.7578C107.081 52.9245 107.478 52.2669 107.934 51.7852C108.402 51.2904 108.865 50.9258 109.32 50.6914C109.789 50.444 110.212 50.2878 110.59 50.2227C110.98 50.1576 111.273 50.125 111.469 50.125C112.133 50.125 112.673 50.3398 113.09 50.7695C113.507 51.1862 113.832 51.7266 114.066 52.3906C114.301 53.0547 114.457 53.7839 114.535 54.5781C114.626 55.3724 114.672 56.1406 114.672 56.8828C114.672 57.4688 114.652 58.0286 114.613 58.5625C114.587 59.0833 114.561 59.5521 114.535 59.9688ZM122.074 46.043C122.074 46.4466 122.009 46.8242 121.879 47.1758C121.749 47.5143 121.553 47.8138 121.293 48.0742C121.033 48.3216 120.701 48.5169 120.297 48.6602C119.906 48.8034 119.444 48.875 118.91 48.875C118.324 48.875 117.829 48.8034 117.426 48.6602C117.035 48.5169 116.71 48.3216 116.449 48.0742C116.202 47.8138 116.02 47.5143 115.902 47.1758C115.798 46.8242 115.746 46.4466 115.746 46.043C115.746 45.6523 115.805 45.2878 115.922 44.9492C116.039 44.5977 116.221 44.2917 116.469 44.0312C116.729 43.7708 117.061 43.569 117.465 43.4258C117.868 43.2695 118.35 43.1914 118.91 43.1914C119.47 43.1914 119.945 43.2695 120.336 43.4258C120.74 43.569 121.065 43.7708 121.312 44.0312C121.573 44.2917 121.762 44.5977 121.879 44.9492C122.009 45.2878 122.074 45.6523 122.074 46.043ZM120.902 51.7266C120.824 52.4427 120.759 53.2109 120.707 54.0312C120.655 54.8516 120.609 55.7044 120.57 56.5898C120.531 57.4622 120.505 58.3542 120.492 59.2656C120.479 60.1641 120.473 61.0495 120.473 61.9219C120.473 62.9375 120.479 63.9206 120.492 64.8711C120.518 65.8086 120.544 66.6745 120.57 67.4688C120.609 68.263 120.648 68.9661 120.688 69.5781C120.74 70.1901 120.798 70.6654 120.863 71.0039C120.342 71.0039 119.802 71.0169 119.242 71.043C118.76 71.069 118.22 71.1016 117.621 71.1406C117.022 71.1797 116.423 71.2383 115.824 71.3164C116.046 68.9727 116.195 66.8307 116.273 64.8906C116.352 62.9375 116.391 61.1862 116.391 59.6367C116.391 58.3086 116.365 57.1497 116.312 56.1602C116.273 55.1576 116.228 54.3112 116.176 53.6211C116.124 52.8138 116.059 52.1237 115.98 51.5508C116.71 51.6419 117.374 51.7005 117.973 51.7266C118.585 51.7526 119.112 51.7656 119.555 51.7656C119.763 51.7656 119.952 51.7656 120.121 51.7656C120.29 51.7656 120.434 51.7591 120.551 51.7461C120.694 51.7461 120.811 51.7396 120.902 51.7266ZM134.652 59.5586C134.652 61.6159 134.639 63.6732 134.613 65.7305C134.6 67.7878 134.561 69.9297 134.496 72.1562L131.098 71.9609V69.3242C130.707 70.0273 130.264 70.5677 129.77 70.9453C129.275 71.3099 128.806 71.5833 128.363 71.7656C127.842 71.974 127.328 72.0911 126.82 72.1172C126.195 72.1172 125.609 71.9805 125.062 71.707C124.516 71.4206 124.04 71.043 123.637 70.5742C123.233 70.1055 122.914 69.5716 122.68 68.9727C122.458 68.3607 122.348 67.7292 122.348 67.0781C122.348 66.3359 122.504 65.6068 122.816 64.8906C123.142 64.1615 123.689 63.5039 124.457 62.918C125.486 62.1237 126.378 61.4596 127.133 60.9258C127.888 60.3919 128.513 59.9102 129.008 59.4805C129.516 59.0378 129.887 58.6211 130.121 58.2305C130.368 57.8268 130.492 57.3646 130.492 56.8438C130.492 55.9844 130.349 55.3464 130.062 54.9297C129.776 54.5 129.398 54.2852 128.93 54.2852C128.643 54.2852 128.396 54.3633 128.188 54.5195C127.992 54.6628 127.829 54.8581 127.699 55.1055C127.582 55.3398 127.491 55.6068 127.426 55.9062C127.374 56.1927 127.348 56.4792 127.348 56.7656C127.348 56.9609 127.354 57.1758 127.367 57.4102C127.393 57.6445 127.439 57.8919 127.504 58.1523L123.012 58.2305C122.986 58.0091 122.966 57.8008 122.953 57.6055C122.94 57.3971 122.934 57.1953 122.934 57C122.934 56.1927 123.07 55.3984 123.344 54.6172C123.617 53.8229 124.014 53.1198 124.535 52.5078C125.069 51.8828 125.714 51.3815 126.469 51.0039C127.224 50.6263 128.09 50.4375 129.066 50.4375C130.329 50.4375 131.326 50.7044 132.055 51.2383C132.797 51.7591 133.357 52.4492 133.734 53.3086C134.125 54.168 134.372 55.1445 134.477 56.2383C134.594 57.319 134.652 58.4258 134.652 59.5586ZM130.258 65.0859C130.323 64.7604 130.382 64.3893 130.434 63.9727C130.486 63.6211 130.531 63.1979 130.57 62.7031C130.609 62.1953 130.642 61.6289 130.668 61.0039C130.46 61.2904 130.258 61.5443 130.062 61.7656C129.867 61.987 129.685 62.1823 129.516 62.3516C129.32 62.5469 129.138 62.7227 128.969 62.8789C128.669 63.1263 128.35 63.4062 128.012 63.7188C127.673 64.0182 127.361 64.3372 127.074 64.6758C126.801 65.0143 126.566 65.3659 126.371 65.7305C126.189 66.082 126.098 66.4271 126.098 66.7656C126.098 67.1302 126.221 67.4688 126.469 67.7812C126.716 68.0807 127.022 68.2305 127.387 68.2305C127.66 68.2305 127.94 68.1523 128.227 67.9961C128.526 67.8398 128.806 67.6185 129.066 67.332C129.34 67.0456 129.581 66.7135 129.789 66.3359C129.997 65.9583 130.154 65.5417 130.258 65.0859Z" fill="#D32F2F"/>
<path fill-rule="evenodd" clip-rule="evenodd" d="M22.0417 41.75C22.5112 41.7501 22.9643 41.9224 23.3151 42.2344C23.6659 42.5463 23.89 42.9762 23.945 43.4424L23.9584 43.6667V57.4475L37.26 53.8212C37.7503 53.688 38.2734 53.7548 38.7144 54.0071C39.1554 54.2594 39.4782 54.6765 39.6118 55.1667C40.6139 58.8403 40.439 62.7357 39.1118 66.3047C37.7846 69.8738 35.3718 72.937 32.213 75.0633C29.0541 77.1897 25.3081 78.2722 21.5019 78.1586C17.6958 78.0449 14.021 76.7409 10.9946 74.4299C7.96822 72.1189 5.74248 68.9173 4.63054 65.2754C3.51859 61.6335 3.5764 57.7347 4.79581 54.1274C6.01523 50.52 8.33489 47.3858 11.4285 45.1655C14.522 42.9453 18.2339 41.7507 22.0417 41.75ZM23.9584 62.8333C22.6875 62.8333 21.4688 63.3382 20.5702 64.2368C19.6715 65.1354 19.1667 66.3542 19.1667 67.625C19.1667 68.8958 19.6715 70.1146 20.5702 71.0132C21.4688 71.9118 22.6875 72.4167 23.9584 72.4167C25.2292 72.4167 26.448 71.9118 27.3466 71.0132C28.2452 70.1146 28.75 68.8958 28.75 67.625C28.75 66.3542 28.2452 65.1354 27.3466 64.2368C26.448 63.3382 25.2292 62.8333 23.9584 62.8333ZM23.9584 66.6667C24.2125 66.6667 24.4563 66.7676 24.636 66.9474C24.8157 67.1271 24.9167 67.3708 24.9167 67.625C24.9167 67.8792 24.8157 68.1229 24.636 68.3026C24.4563 68.4824 24.2125 68.5833 23.9584 68.5833C23.7042 68.5833 23.4604 68.4824 23.2807 68.3026C23.101 68.1229 23 67.8792 23 67.625C23 67.3708 23.101 67.1271 23.2807 66.9474C23.4604 66.7676 23.7042 66.6667 23.9584 66.6667ZM32.5834 60.9167C32.1139 60.9167 31.6608 61.0891 31.31 61.401C30.9592 61.713 30.735 62.1429 30.6801 62.6091L30.6667 62.8525C30.6672 63.341 30.8543 63.8109 31.1897 64.1661C31.525 64.5214 31.9834 64.7351 32.471 64.7637C32.9587 64.7924 33.4389 64.6337 33.8136 64.3202C34.1882 64.0066 34.4289 63.5619 34.4866 63.0768L34.5 62.8333C34.5 62.325 34.2981 61.8375 33.9387 61.478C33.5792 61.1186 33.0917 60.9167 32.5834 60.9167ZM14.375 59C13.6125 59 12.8813 59.3029 12.3421 59.8421C11.8029 60.3812 11.5 61.1125 11.5 61.875C11.5 62.6375 11.8029 63.3688 12.3421 63.9079C12.8813 64.4471 13.6125 64.75 14.375 64.75C15.1375 64.75 15.8688 64.4471 16.408 63.9079C16.9471 63.3688 17.25 62.6375 17.25 61.875C17.25 61.1125 16.9471 60.3812 16.408 59.8421C15.8688 59.3029 15.1375 59 14.375 59ZM29.3135 39.9177C33.3649 41.1677 36.8544 43.7898 39.1825 47.3333C39.4551 47.7484 39.5559 48.2532 39.4636 48.7413C39.3714 49.2293 39.0933 49.6625 38.688 49.9495L38.4944 50.0703L27.7457 55.8931C27.4499 56.0533 27.1172 56.1329 26.7809 56.1238C26.4447 56.1147 26.1167 56.0173 25.83 55.8413C25.5433 55.6654 25.308 55.417 25.1477 55.1213C24.9874 54.8256 24.9077 54.4929 24.9167 54.1566L24.9397 53.917L26.8564 41.4587C26.8982 41.1867 26.9981 40.9269 27.1492 40.6969C27.3004 40.467 27.4993 40.2723 27.7325 40.1261C27.9656 39.9799 28.2275 39.8856 28.5003 39.8496C28.7731 39.8137 29.0505 39.8369 29.3135 39.9177ZM15.3334 51.3333C14.8639 51.3334 14.4108 51.5057 14.06 51.8177C13.7092 52.1297 13.485 52.5595 13.4301 53.0258L13.4167 53.2692C13.4172 53.7577 13.6043 54.2276 13.9397 54.5828C14.275 54.938 14.7334 55.1518 15.221 55.1804C15.7087 55.209 16.1889 55.0504 16.5636 54.7368C16.9382 54.4233 17.1789 53.9785 17.2366 53.4934L17.25 53.25C17.25 52.7417 17.0481 52.2542 16.6887 51.8947C16.3292 51.5353 15.8417 51.3333 15.3334 51.3333ZM30.2795 44.4103L29.3155 50.6836L34.6955 47.7683C33.4545 46.374 31.9548 45.2336 30.2795 44.4103Z" fill="#D32F2F"/>
</svg>
