<svg width="109" height="124" viewBox="0 0 109 124" fill="none" xmlns="http://www.w3.org/2000/svg">
<path d="M66.875 5H17.375C14.0929 5 10.9453 6.20107 8.62455 8.33898C6.30379 10.4769 5 13.3765 5 16.4V107.6C5 110.623 6.30379 113.523 8.62455 115.661C10.9453 117.799 14.0929 119 17.375 119H91.625C94.9071 119 98.0547 117.799 100.375 115.661C102.696 113.523 104 110.623 104 107.6V39.2M66.875 5L104 39.2M66.875 5V39.2H104M79.25 67.7H29.75M79.25 90.5H29.75M42.125 44.9H29.75" stroke="#FFFAF0" stroke-width="10" stroke-linecap="round" stroke-linejoin="round"/>
</svg>
