<svg width="122" height="122" viewBox="0 0 122 122" fill="none" xmlns="http://www.w3.org/2000/svg">
<path d="M70.6019 42.5561L70.6575 42.4943" stroke="#FFFAF0" stroke-width="10" stroke-linecap="round" stroke-linejoin="round"/>
<path d="M37.1897 36.9873L37.2454 36.9255" stroke="#FFFAF0" stroke-width="10" stroke-linecap="round" stroke-linejoin="round"/>
<path d="M37.1897 70.4001L37.2454 70.3383" stroke="#FFFAF0" stroke-width="10" stroke-linecap="round" stroke-linejoin="round"/>
<path d="M26.0514 98.1885L5.09183 9.11039C4.50493 6.61601 6.82868 4.41656 9.28709 5.13961L98.4458 31.3628" stroke="#FFFAF0" stroke-width="10"/>
<path d="M116.256 39.2964C117.561 34.0749 114.387 28.7838 109.165 27.4784C103.943 26.173 98.6525 29.3477 97.3471 34.5692C95.1647 43.2977 86.7608 57.1134 73.8067 70.0676C60.9929 82.8814 45.1376 93.4226 29.4312 97.0473C24.1868 98.2574 20.9164 103.49 22.1267 108.734C23.3369 113.979 28.5695 117.249 33.8139 116.039C54.3053 111.31 73.2548 98.1834 87.5889 83.8498C101.782 69.6561 112.869 52.8433 116.256 39.2964Z" stroke="#FFFAF0" stroke-width="10" stroke-linecap="round"/>
</svg>
