<svg width="133" height="140" viewBox="0 0 133 140" fill="none" xmlns="http://www.w3.org/2000/svg">
<path d="M127.302 5L120.508 11.7946" stroke="#FFFAF0" stroke-width="10" stroke-linecap="round" stroke-linejoin="round"/>
<path d="M5 5L11.7946 11.7946" stroke="#FFFAF0" stroke-width="10" stroke-linecap="round" stroke-linejoin="round"/>
<path d="M127.302 100.124L120.508 93.3294" stroke="#FFFAF0" stroke-width="10" stroke-linecap="round" stroke-linejoin="round"/>
<path d="M5 100.124L11.7946 93.3294" stroke="#FFFAF0" stroke-width="10" stroke-linecap="round" stroke-linejoin="round"/>
<path d="M45.7673 113.713H86.5347" stroke="#FFFAF0" stroke-width="10" stroke-linecap="round" stroke-linejoin="round"/>
<path d="M52.5619 134.097H79.7402" stroke="#FFFAF0" stroke-width="10" stroke-linecap="round" stroke-linejoin="round"/>
<path d="M66.1497 11.7946C38.9707 11.7946 25.0565 25.0459 25.3826 45.7674C25.5415 55.8702 28.7789 62.7538 35.5744 69.5484C42.37 76.343 45.7673 79.7402 45.7663 93.3294H86.5334C86.5347 79.7409 89.932 76.343 96.7245 69.5491C103.518 62.7545 106.759 55.8702 106.917 45.7674C107.243 25.0459 93.3293 11.7946 66.1497 11.7946Z" stroke="#FFFAF0" stroke-width="10" stroke-linecap="round" stroke-linejoin="round"/>
</svg>
